arm26_states
version=1
nRows=38
nColumns=17
inDegrees=yes

# SIMM Motion File Header:
name arm26_states
datacolumns 17
datarows 38
otherdata 1
range 1.53205648 1.53264939
endheader
time	/jointset/r_shoulder/r_shoulder_elev/value	/jointset/r_shoulder/r_shoulder_elev/speed	/jointset/r_elbow/r_elbow_flex/value	/jointset/r_elbow/r_elbow_flex/speed	/forceset/TRIlong/activation	/forceset/TRIlong/fiber_length	/forceset/TRIlat/activation	/forceset/TRIlat/fiber_length	/forceset/TRImed/activation	/forceset/TRImed/fiber_length	/forceset/BIClong/activation	/forceset/BIClong/fiber_length	/forceset/BICshort/activation	/forceset/BICshort/fiber_length	/forceset/BRA/activation	/forceset/BRA/fiber_length
      1.53205648	     29.50161355	      0.93828475	      4.93057145	   -309.62122578	     -0.30013075	      0.15668789	      0.45339275	      0.07110338	      0.45339275	      0.06625862	      0.65116693	      0.16837005	     -0.10909832	      0.15050875	     -0.27345932	      0.09220359
      1.53206110	     29.50161792	      0.95383983	      4.92914017	   -309.67818482	     -0.30013135	      0.15668738	      0.45339549	      0.07110286	      0.45339549	      0.06625810	      0.65117086	      0.16835142	     -0.10909893	      0.15050904	     -0.27345992	      0.09220395
      1.53206137	     29.50161818	      0.95474518	      4.92905685	   -309.68150004	     -0.30013138	      0.15668735	      0.45339565	      0.07110283	      0.45339565	      0.06625807	      0.65117108	      0.16835034	     -0.10909896	      0.15050906	     -0.27345995	      0.09220397
      1.53206144	     29.50161825	      0.94663832	      4.92903549	   -309.66078431	     -0.30013139	      0.15668734	      0.45339569	      0.07110282	      0.45339569	      0.06625806	      0.65117114	      0.16836018	     -0.10909897	      0.15050906	     -0.27345996	      0.09220397
      1.53206151	     29.50161831	      0.93686567	      4.92901413	   -309.63576064	     -0.30013140	      0.15668734	      0.45339573	      0.07110281	      0.45339573	      0.06625806	      0.65117120	      0.16837204	     -0.10909898	      0.15050907	     -0.27345997	      0.09220398
      1.53206185	     29.50161863	      0.88803454	      4.92890737	   -309.51072543	     -0.30013145	      0.15668730	      0.45339593	      0.07110278	      0.45339593	      0.06625802	      0.65117149	      0.16843134	     -0.10909903	      0.15050909	     -0.27346001	      0.09220401
      1.53206358	     29.50161995	      0.64468165	      4.92837423	   -308.88762615	     -0.30013167	      0.15668711	      0.45339696	      0.07110258	      0.45339696	      0.06625783	      0.65117296	      0.16872755	     -0.10909926	      0.15050920	     -0.27346024	      0.09220414
      1.53207220	     29.50162032	     -0.55208395	      4.92572444	   -305.82386745	     -0.30013278	      0.15668615	      0.45340206	      0.07110162	      0.45340206	      0.06625687	      0.65118028	      0.17020109	     -0.10910040	      0.15050974	     -0.27346135	      0.09220481
      1.53207386	     29.50161922	     -0.77854094	      4.92521762	   -305.24423298	     -0.30013299	      0.15668597	      0.45340304	      0.07110144	      0.45340304	      0.06625668	      0.65118169	      0.17048313	     -0.10910062	      0.15050985	     -0.27346156	      0.09220494
      1.53207493	     29.50161831	     -0.92383642	      4.92489150	   -304.87235556	     -0.30013313	      0.15668585	      0.45340368	      0.07110132	      0.45340368	      0.06625657	      0.65118260	      0.17066464	     -0.10910076	      0.15050991	     -0.27346170	      0.09220502
      1.53207507	     29.50161817	     -0.94025041	      4.92484701	   -304.83043580	     -0.30013315	      0.15668583	      0.45340376	      0.07110130	      0.45340376	      0.06625655	      0.65118272	      0.17068516	     -0.10910078	      0.15050992	     -0.27346172	      0.09220503
      1.53207522	     29.50161804	     -0.93975971	      4.92480253	   -304.83223309	     -0.30013317	      0.15668582	      0.45340385	      0.07110128	      0.45340385	      0.06625653	      0.65118285	      0.17068448	     -0.10910079	      0.15050993	     -0.27346174	      0.09220504
      1.53207595	     29.50161735	     -0.93730626	      4.92458010	   -304.84121950	     -0.30013326	      0.15668574	      0.45340428	      0.07110120	      0.45340428	      0.06625645	      0.65118347	      0.17068109	     -0.10910089	      0.15050998	     -0.27346183	      0.09220510
      1.53207960	     29.50161395	     -0.92503933	      4.92346788	   -304.88615045	     -0.30013373	      0.15668533	      0.45340644	      0.07110080	      0.45340644	      0.06625605	      0.65118656	      0.17066414	     -0.10910137	      0.15051021	     -0.27346230	      0.09220538
      1.53209784	     29.50159764	     -0.86371347	      4.91790434	   -305.11077817	     -0.30013608	      0.15668331	      0.45341724	      0.07109876	      0.45341724	      0.06625402	      0.65120206	      0.17057970	     -0.10910378	      0.15051136	     -0.27346466	      0.09220679
      1.53218905	     29.50153284	     -0.55731306	      4.89002519	   -306.23321312	     -0.30014783	      0.15667321	      0.45347125	      0.07108858	      0.45347125	      0.06624387	      0.65127953	      0.17016400	     -0.10911584	      0.15051710	     -0.27347643	      0.09221383
      1.53224442	     29.50150712	     -0.37148486	      4.87304902	   -306.91407407	     -0.30015496	      0.15666707	      0.45350404	      0.07108239	      0.45350404	      0.06623771	      0.65132656	      0.16991675	     -0.10912315	      0.15052059	     -0.27348358	      0.09221810
      1.53252129	     29.50153265	      0.55517696	      4.78760340	   -310.31082493	     -0.30019063	      0.15663635	      0.45366799	      0.07105143	      0.45366799	      0.06620686	      0.65156172	      0.16873389	     -0.10915974	      0.15053800	     -0.27351933	      0.09223953
      1.53254394	     29.50154609	      0.63080445	      4.78057022	   -310.58816725	     -0.30019355	      0.15663383	      0.45368140	      0.07104889	      0.45368140	      0.06620434	      0.65158096	      0.16864078	     -0.10916274	      0.15053942	     -0.27352226	      0.09224129
      1.53256344	     29.50155902	      0.69584907	      4.77451385	   -310.82671603	     -0.30019606	      0.15663166	      0.45369294	      0.07104671	      0.45369294	      0.06620216	      0.65159752	      0.16856107	     -0.10916531	      0.15054065	     -0.27352477	      0.09224281
      1.53258085	     29.50157164	      0.75393584	      4.76909954	   -311.03975992	     -0.30019831	      0.15662973	      0.45370326	      0.07104476	      0.45370326	      0.06620022	      0.65161231	      0.16849020	     -0.10916761	      0.15054175	     -0.27352702	      0.09224416
      1.53259685	     29.50158413	      0.80728984	      4.76412155	   -311.23545629	     -0.30020037	      0.15662795	      0.45371273	      0.07104296	      0.45371273	      0.06619843	      0.65162590	      0.16842534	     -0.10916973	      0.15054275	     -0.27352909	      0.09224541
      1.53260592	     29.50159159	      0.83755159	      4.76129604	   -311.34645752	     -0.30020154	      0.15662694	      0.45371810	      0.07104195	      0.45371810	      0.06619742	      0.65163361	      0.16838866	     -0.10917093	      0.15054333	     -0.27353026	      0.09224612
      1.53261574	     29.50159998	      0.87027916	      4.75823861	   -311.46650730	     -0.30020280	      0.15662585	      0.45372392	      0.07104085	      0.45372392	      0.06619632	      0.65164195	      0.16834907	     -0.10917222	      0.15054394	     -0.27353153	      0.09224688
      1.53262208	     29.50160556	      0.89139164	      4.75626534	   -311.54395320	     -0.30020362	      0.15662514	      0.45372767	      0.07104014	      0.45372767	      0.06619561	      0.65164733	      0.16832358	     -0.10917306	      0.15054434	     -0.27353234	      0.09224738
      1.53262666	     29.50160967	      0.90664711	      4.75483904	   -311.59991516	     -0.30020421	      0.15662463	      0.45373038	      0.07103962	      0.45373038	      0.06619510	      0.65165122	      0.16830518	     -0.10917367	      0.15054463	     -0.27353294	      0.09224774
      1.53263025	     29.50161295	      0.91862637	      4.75371878	   -311.64385955	     -0.30020467	      0.15662423	      0.45373251	      0.07103922	      0.45373251	      0.06619470	      0.65165427	      0.16829075	     -0.10917414	      0.15054486	     -0.27353340	      0.09224802
      1.53263506	     29.50161741	      0.93463996	      4.75222088	   -311.70260417	     -0.30020529	      0.15662370	      0.45373535	      0.07103868	      0.45373535	      0.06619416	      0.65165835	      0.16827147	     -0.10917478	      0.15054516	     -0.27353402	      0.09224839
      1.53263559	     29.50161791	      0.93642133	      4.75205422	   -311.70913906	     -0.30020536	      0.15662364	      0.45373567	      0.07103862	      0.45373567	      0.06619410	      0.65165881	      0.16826933	     -0.10917485	      0.15054519	     -0.27353409	      0.09224843
      1.53263583	     29.50161813	      0.93721278	      4.75198017	   -311.71204248	     -0.30020539	      0.15662361	      0.45373581	      0.07103859	      0.45373581	      0.06619408	      0.65165901	      0.16826838	     -0.10917488	      0.15054521	     -0.27353412	      0.09224845
      1.53263591	     29.50161820	      0.93560739	      4.75195611	   -311.70817200	     -0.30020540	      0.15662360	      0.45373586	      0.07103859	      0.45373586	      0.06619407	      0.65165907	      0.16827033	     -0.10917489	      0.15054521	     -0.27353413	      0.09224846
      1.53263598	     29.50161827	      0.92469054	      4.75193204	   -311.68023514	     -0.30020541	      0.15662360	      0.45373590	      0.07103858	      0.45373590	      0.06619406	      0.65165914	      0.16828363	     -0.10917490	      0.15054522	     -0.27353414	      0.09224846
      1.53263637	     29.50161862	      0.87014644	      4.75181174	   -311.54065455	     -0.30020546	      0.15662355	      0.45373613	      0.07103853	      0.45373613	      0.06619402	      0.65165947	      0.16835007	     -0.10917495	      0.15054524	     -0.27353419	      0.09224849
      1.53263830	     29.50162004	      0.59842826	      4.75121105	   -310.84534318	     -0.30020571	      0.15662334	      0.45373728	      0.07103832	      0.45373728	      0.06619380	      0.65166111	      0.16868193	     -0.10917520	      0.15054536	     -0.27353444	      0.09224864
      1.53264795	     29.50161934	     -0.73520241	      4.74822748	   -307.43332145	     -0.30020695	      0.15662226	      0.45374299	      0.07103723	      0.45374299	      0.06619272	      0.65166930	      0.17033187	     -0.10917648	      0.15054597	     -0.27353569	      0.09224940
      1.53264905	     29.50161845	     -0.88473305	      4.74788915	   -307.05082664	     -0.30020709	      0.15662214	      0.45374364	      0.07103711	      0.45374364	      0.06619260	      0.65167024	      0.17051910	     -0.10917663	      0.15054604	     -0.27353583	      0.09224948
      1.53264932	     29.50161821	     -0.92144936	      4.74780595	   -306.95690970	     -0.30020713	      0.15662211	      0.45374380	      0.07103708	      0.45374380	      0.06619257	      0.65167047	      0.17056514	     -0.10917666	      0.15054606	     -0.27353586	      0.09224950
      1.53264939	     29.50161814	     -0.92287023	      4.74778392	   -306.95349660	     -0.30020714	      0.15662210	      0.45374385	      0.07103707	      0.45374385	      0.06619256	      0.65167053	      0.17056690	     -0.10917667	      0.15054606	     -0.27353587	      0.09224951
